<svg width="85" height="85" viewBox="0 0 85 85" fill="none" xmlns="http://www.w3.org/2000/svg">
<circle cx="42.5" cy="42.5" r="42" stroke="white"/>
<path d="M72.0281 63.5001V35.0001C72.0281 34.6559 71.6708 34.3559 71.1617 34.2724L49.1609 30.6642V26.7501C49.1609 26.4102 48.8126 26.1132 48.3124 26.0254L14.0116 20.0253C13.6688 19.9653 13.302 20.0133 13.0206 20.1554C12.7387 20.2971 12.5734 20.5168 12.5734 20.7501V63.5001H8V65.0001H76.6016V63.5001H72.0281ZM14.8602 21.7249L46.8742 27.3243V63.5001H41.1574V55.2501C41.1574 54.8359 40.6455 54.5001 40.0141 54.5001H21.7203C21.0889 54.5001 20.577 54.8359 20.577 55.2501V63.5001H14.8602V21.7249ZM22.8637 56.0001H29.7238V63.5001H22.8637V56.0001ZM32.0105 63.5001V56.0001H38.8707V63.5001H32.0105ZM56.0211 63.5001V57.5001H62.8813V63.5001H56.0211ZM65.168 63.5001V56.7501C65.168 56.3359 64.656 56.0001 64.0246 56.0001H54.8777C54.2463 56.0001 53.7344 56.3359 53.7344 56.7501V63.5001H49.1609V32.2107L69.7414 35.5857V63.5001H65.168Z" fill="white"/>
<path d="M22.8637 51.5009H27.4372C28.0686 51.5009 28.5806 51.165 28.5806 50.7509V47.7509C28.5806 47.3367 28.0686 47.0009 27.4372 47.0009H22.8637C22.2323 47.0009 21.7203 47.3367 21.7203 47.7509V50.7509C21.7203 51.165 22.2323 51.5009 22.8637 51.5009ZM24.0071 48.5009H26.2938V50.0009H24.0071V48.5009Z" fill="white"/>
<path d="M34.2973 51.5009H38.8707C39.5021 51.5009 40.014 51.165 40.014 50.7509V47.7509C40.014 47.3367 39.5021 47.0009 38.8707 47.0009H34.2973C33.6659 47.0009 33.1539 47.3367 33.1539 47.7509V50.7509C33.1539 51.165 33.6659 51.5009 34.2973 51.5009ZM35.4406 48.5009H37.7273V50.0009H35.4406V48.5009Z" fill="white"/>
<path d="M57.1645 48.5009H52.5911C51.9597 48.5009 51.4478 48.8367 51.4478 49.2509V52.2509C51.4478 52.665 51.9597 53.0009 52.5911 53.0009H57.1645C57.7959 53.0009 58.3079 52.665 58.3079 52.2509V49.2509C58.3079 48.8367 57.7959 48.5009 57.1645 48.5009ZM56.0212 51.5009H53.7345V50.0009H56.0212V51.5009Z" fill="white"/>
<path d="M66.3113 48.5009H61.7379C61.1064 48.5009 60.5945 48.8367 60.5945 49.2509V52.2509C60.5945 52.665 61.1064 53.0009 61.7379 53.0009H66.3113C66.9428 53.0009 67.4547 52.665 67.4547 52.2509V49.2509C67.4547 48.8367 66.9428 48.5009 66.3113 48.5009ZM65.168 51.5009H62.8812V50.0009H65.168V51.5009Z" fill="white"/>
<path d="M57.1645 42.5009H52.5911C51.9597 42.5009 51.4478 42.8367 51.4478 43.2509V46.2509C51.4478 46.665 51.9597 47.0009 52.5911 47.0009H57.1645C57.7959 47.0009 58.3079 46.665 58.3079 46.2509V43.2509C58.3079 42.8367 57.7959 42.5009 57.1645 42.5009ZM56.0212 45.5009H53.7345V44.0009H56.0212V45.5009Z" fill="white"/>
<path d="M66.3113 42.5009H61.7379C61.1064 42.5009 60.5945 42.8367 60.5945 43.2509V46.2509C60.5945 46.665 61.1064 47.0009 61.7379 47.0009H66.3113C66.9428 47.0009 67.4547 46.665 67.4547 46.2509V43.2509C67.4547 42.8367 66.9428 42.5009 66.3113 42.5009ZM65.168 45.5009H62.8812V44.0009H65.168V45.5009Z" fill="white"/>
<path d="M57.1645 36.5009H52.5911C51.9597 36.5009 51.4478 36.8367 51.4478 37.2509V40.2509C51.4478 40.665 51.9597 41.0009 52.5911 41.0009H57.1645C57.7959 41.0009 58.3079 40.665 58.3079 40.2509V37.2509C58.3079 36.8367 57.7959 36.5009 57.1645 36.5009ZM56.0212 39.5009H53.7345V38.0009H56.0212V39.5009Z" fill="white"/>
<path d="M66.3113 36.5009H61.7379C61.1064 36.5009 60.5945 36.8367 60.5945 37.2509V40.2509C60.5945 40.665 61.1064 41.0009 61.7379 41.0009H66.3113C66.9428 41.0009 67.4547 40.665 67.4547 40.2509V37.2509C67.4547 36.8367 66.9428 36.5009 66.3113 36.5009ZM65.168 39.5009H62.8812V38.0009H65.168V39.5009Z" fill="white"/>
<path d="M22.8637 45.5009H27.4372C28.0686 45.5009 28.5806 45.165 28.5806 44.7509V41.7509C28.5806 41.3367 28.0686 41.0009 27.4372 41.0009H22.8637C22.2323 41.0009 21.7203 41.3367 21.7203 41.7509V44.7509C21.7203 45.165 22.2323 45.5009 22.8637 45.5009ZM24.0071 42.5009H26.2938V44.0009H24.0071V42.5009Z" fill="white"/>
<path d="M34.2973 45.5009H38.8707C39.5021 45.5009 40.014 45.165 40.014 44.7509V41.7509C40.014 41.3367 39.5021 41.0009 38.8707 41.0009H34.2973C33.6659 41.0009 33.1539 41.3367 33.1539 41.7509V44.7509C33.1539 45.165 33.6659 45.5009 34.2973 45.5009ZM35.4406 42.5009H37.7273V44.0009H35.4406V42.5009Z" fill="white"/>
<path d="M22.8637 39.5009H27.4372C28.0686 39.5009 28.5806 39.165 28.5806 38.7509V35.7509C28.5806 35.3367 28.0686 35.0009 27.4372 35.0009H22.8637C22.2323 35.0009 21.7203 35.3367 21.7203 35.7509V38.7509C21.7203 39.165 22.2323 39.5009 22.8637 39.5009ZM24.0071 36.5009H26.2938V38.0009H24.0071V36.5009Z" fill="white"/>
<path d="M34.2973 39.5009H38.8707C39.5021 39.5009 40.014 39.165 40.014 38.7509V35.7509C40.014 35.3367 39.5021 35.0009 38.8707 35.0009H34.2973C33.6659 35.0009 33.1539 35.3367 33.1539 35.7509V38.7509C33.1539 39.165 33.6659 39.5009 34.2973 39.5009ZM35.4406 36.5009H37.7273V38.0009H35.4406V36.5009Z" fill="white"/>
<path d="M22.8637 33.5009H27.4372C28.0686 33.5009 28.5806 33.165 28.5806 32.7509V29.7509C28.5806 29.3367 28.0686 29.0009 27.4372 29.0009H22.8637C22.2323 29.0009 21.7203 29.3367 21.7203 29.7509V32.7509C21.7203 33.165 22.2323 33.5009 22.8637 33.5009ZM24.0071 30.5009H26.2938V32.0009H24.0071V30.5009Z" fill="white"/>
<path d="M34.2973 33.5009H38.8707C39.5021 33.5009 40.014 33.165 40.014 32.7509V29.7509C40.014 29.3367 39.5021 29.0009 38.8707 29.0009H34.2973C33.6659 29.0009 33.1539 29.3367 33.1539 29.7509V32.7509C33.1539 33.165 33.6659 33.5009 34.2973 33.5009ZM35.4406 30.5009H37.7273V32.0009H35.4406V30.5009Z" fill="white"/>
</svg>
