<svg width="85" height="85" viewBox="0 0 85 85" fill="none" xmlns="http://www.w3.org/2000/svg">
<circle cx="42.5" cy="42.5" r="42" stroke="white"/>
<path d="M74.581 57.3348H67.9359C67.6736 57.3348 67.4221 57.2665 67.2367 57.1449C67.0512 57.0232 66.947 56.8582 66.947 56.6862C66.947 56.5142 67.0512 56.3492 67.2367 56.2275C67.4221 56.1059 67.6736 56.0375 67.9359 56.0375H74.581C74.7566 56.0374 74.925 55.9915 75.0491 55.9101C75.1733 55.8286 75.2432 55.7181 75.2435 55.6029V53.5532C75.2411 52.1482 74.3892 50.8011 72.8746 49.8076C71.3601 48.8141 69.3065 48.2553 67.1646 48.2537H9.97941V54.8505C9.97993 55.1652 10.1708 55.4669 10.51 55.6895C10.8493 55.912 11.3092 56.0372 11.789 56.0375H15.9916C16.2539 56.0375 16.5054 56.1059 16.6908 56.2275C16.8763 56.3492 16.9805 56.5142 16.9805 56.6862C16.9805 56.8582 16.8763 57.0232 16.6908 57.1449C16.5054 57.2665 16.2539 57.3348 15.9916 57.3348H11.789C10.7849 57.3342 9.82217 57.0722 9.11214 56.6064C8.40211 56.1407 8.00276 55.5092 8.00171 54.8505V47.6051C8.00171 47.433 8.10589 47.2681 8.29134 47.1464C8.47678 47.0248 8.7283 46.9564 8.99056 46.9564H67.1646C69.8309 46.9583 72.3871 47.6539 74.2725 48.8907C76.1579 50.1274 77.2183 51.8042 77.2212 53.5532V55.6029C77.2204 56.0621 76.942 56.5023 76.447 56.827C75.952 57.1517 75.281 57.3343 74.581 57.3348Z" fill="white"/>
<path d="M55.7928 57.3348H28.4312C28.169 57.3348 27.9175 57.2665 27.732 57.1449C27.5466 57.0232 27.4424 56.8582 27.4424 56.6862C27.4424 56.5142 27.5466 56.3492 27.732 56.2276C27.9175 56.1059 28.169 56.0376 28.4312 56.0376H55.7928C56.055 56.0376 56.3065 56.1059 56.492 56.2276C56.6774 56.3492 56.7816 56.5142 56.7816 56.6862C56.7816 56.8582 56.6774 57.0232 56.492 57.1449C56.3065 57.2665 56.055 57.3348 55.7928 57.3348Z" fill="white"/>
<path d="M8.99058 48.257C8.91808 48.2569 8.84581 48.2517 8.77502 48.2414C8.6482 48.223 8.52815 48.1884 8.42174 48.1395C8.31533 48.0907 8.22464 48.0285 8.15485 47.9567C8.08506 47.8848 8.03754 47.8046 8.015 47.7207C7.99246 47.6368 7.99535 47.5508 8.02349 47.4676C9.28671 44.2415 12.2093 41.4003 16.2972 39.4244C17.5996 38.8356 19.1455 38.5221 20.7273 38.526H45.6997C47.0447 38.5271 48.3749 38.7102 49.6069 39.064C50.839 39.4178 51.9465 39.9347 52.86 40.5822L62.1255 47.1673C62.2196 47.2291 62.2938 47.3027 62.3435 47.3837C62.3932 47.4647 62.4175 47.5515 62.4148 47.6388C62.4122 47.7261 62.3827 47.8122 62.3281 47.8918C62.2735 47.9715 62.195 48.0431 62.0972 48.1024C61.9994 48.1616 61.8843 48.2073 61.7589 48.2367C61.6335 48.2661 61.5004 48.2786 61.3675 48.2734C61.2346 48.2682 61.1046 48.2455 60.9855 48.2065C60.8663 48.1676 60.7603 48.1133 60.6739 48.0469L51.4123 41.4638C50.6839 40.9476 49.8009 40.5357 48.8186 40.2536C47.8363 39.9716 46.7759 39.8255 45.7037 39.8246H20.7282C19.5474 39.8218 18.3935 40.0561 17.4215 40.496C11.5725 43.1444 9.97152 47.7031 9.95669 47.7491C9.90784 47.8933 9.78547 48.0222 9.60981 48.1145C9.43414 48.2069 9.2157 48.2571 8.99058 48.257Z" fill="white"/>
<path d="M39.645 48.2571C39.4091 48.2569 39.181 48.2013 39.002 48.1004C38.823 47.9996 38.7049 47.86 38.669 47.707L36.6913 39.2746C36.6665 39.1889 36.6683 39.1008 36.6966 39.0156C36.7249 38.9304 36.7791 38.8499 36.8559 38.7787C36.9327 38.7076 37.0306 38.6473 37.1438 38.6015C37.2569 38.5558 37.383 38.5254 37.5144 38.5124C37.6458 38.4993 37.7799 38.5037 37.9087 38.5254C38.0374 38.547 38.1582 38.5855 38.2637 38.6385C38.3693 38.6915 38.4575 38.7579 38.5231 38.8338C38.5886 38.9096 38.6302 38.9933 38.6453 39.08L40.623 47.5124C40.6441 47.6047 40.6345 47.6989 40.595 47.7885C40.5556 47.8781 40.4871 47.9611 40.3942 48.0318C40.3014 48.1025 40.1864 48.1592 40.0571 48.1981C39.9278 48.237 39.7873 48.2571 39.645 48.2571Z" fill="white"/>
<path d="M20.8569 48.2571C20.7583 48.2572 20.6603 48.2473 20.5662 48.2279C20.3157 48.1773 20.106 48.0636 19.9833 47.9117C19.8606 47.7598 19.8348 47.5821 19.9116 47.4177L23.8669 38.9853C23.9051 38.9039 23.9674 38.8282 24.0501 38.7625C24.1329 38.6968 24.2346 38.6425 24.3494 38.6027C24.4642 38.5628 24.5898 38.5381 24.7191 38.5301C24.8484 38.5221 24.9788 38.5308 25.103 38.5559C25.2271 38.5809 25.3425 38.6218 25.4426 38.6761C25.5427 38.7304 25.6255 38.7971 25.6863 38.8724C25.7471 38.9476 25.7846 39.0301 25.7969 39.1149C25.8091 39.1997 25.7958 39.2853 25.7576 39.3667L21.8023 47.7991C21.7401 47.9317 21.6147 48.0478 21.4446 48.1302C21.2744 48.2126 21.0685 48.2571 20.8569 48.2571Z" fill="white"/>
<path d="M61.8735 61.5121C60.4757 61.5122 59.1092 61.2404 57.9468 60.7311C56.7845 60.2218 55.8785 59.4978 55.3434 58.6507C54.8084 57.8037 54.6683 56.8715 54.9409 55.9722C55.2134 55.0729 55.8865 54.2468 56.8748 53.5984C57.8631 52.95 59.1224 52.5084 60.4934 52.3295C61.8643 52.1506 63.2854 52.2423 64.5768 52.5932C65.8683 52.944 66.9721 53.5382 67.7487 54.3006C68.5253 55.063 68.9398 55.9593 68.9398 56.8762C68.9377 58.1052 68.1926 59.2834 66.8679 60.1525C65.5432 61.0216 63.747 61.5105 61.8735 61.5121ZM61.8735 53.5383C60.8668 53.5382 59.8826 53.7339 59.0455 54.1007C58.2083 54.4675 57.5558 54.9889 57.1705 55.599C56.7852 56.209 56.6843 56.8804 56.8806 57.528C57.077 58.1757 57.5617 58.7707 58.2736 59.2376C58.9855 59.7045 59.8924 60.0225 60.8798 60.1513C61.8672 60.2801 62.8906 60.214 63.8207 59.9612C64.7507 59.7084 65.5456 59.2804 66.1048 58.7313C66.664 58.1822 66.9623 57.5366 66.9621 56.8762C66.9611 55.991 66.4247 55.1423 65.4707 54.5163C64.5166 53.8902 63.2229 53.538 61.8735 53.537V53.5383Z" fill="white"/>
<path d="M61.8734 59.0544C61.2162 59.0546 60.5737 58.9269 60.0272 58.6875C59.4807 58.4481 59.0546 58.1077 58.803 57.7095C58.5514 57.3113 58.4854 56.873 58.6135 56.4502C58.7416 56.0274 59.058 55.639 59.5226 55.3341C59.9872 55.0293 60.5793 54.8216 61.2238 54.7375C61.8684 54.6533 62.5365 54.6965 63.1436 54.8614C63.7508 55.0263 64.2698 55.3057 64.6349 55.6641C65.0001 56.0225 65.1949 56.4439 65.1949 56.875C65.1942 57.4528 64.844 58.0067 64.2213 58.4153C63.5986 58.8239 62.7542 59.0538 61.8734 59.0544ZM61.8734 55.9935C61.6073 55.9934 61.3471 56.045 61.1258 56.1419C60.9045 56.2388 60.732 56.3765 60.6301 56.5378C60.5282 56.699 60.5015 56.8764 60.5533 57.0476C60.6052 57.2188 60.7333 57.376 60.9214 57.4994C61.1096 57.6228 61.3493 57.7069 61.6103 57.7409C61.8712 57.7749 62.1417 57.7574 62.3875 57.6905C62.6333 57.6237 62.8433 57.5105 62.991 57.3653C63.1387 57.2202 63.2174 57.0495 63.2172 56.875C63.2167 56.6413 63.0749 56.4173 62.823 56.2521C62.5711 56.0868 62.2296 55.9938 61.8734 55.9935Z" fill="white"/>
<path d="M22.2125 59.0544C21.5553 59.0544 20.9129 58.9266 20.3665 58.6871C19.8201 58.4477 19.3943 58.1073 19.1428 57.709C18.8913 57.3108 18.8255 56.8726 18.9537 56.4498C19.0819 56.027 19.3984 55.6387 19.8631 55.3339C20.3277 55.0291 20.9197 54.8215 21.5643 54.7374C22.2088 54.6533 22.8768 54.6965 23.484 54.8615C24.0911 55.0264 24.61 55.3058 24.9751 55.6642C25.3402 56.0226 25.535 56.4439 25.535 56.875C25.5342 57.4529 25.1839 58.0069 24.561 58.4155C23.9381 58.8241 23.0934 59.0539 22.2125 59.0544ZM22.2125 55.9935C21.9464 55.9935 21.6864 56.0452 21.4652 56.1422C21.244 56.2392 21.0716 56.377 20.9699 56.5382C20.8681 56.6994 20.8416 56.8768 20.8935 57.048C20.9455 57.2191 21.0737 57.3763 21.2619 57.4997C21.45 57.623 21.6898 57.707 21.9507 57.7409C22.2116 57.7749 22.4821 57.7573 22.7278 57.6905C22.9735 57.6236 23.1835 57.5104 23.3311 57.3653C23.4788 57.2201 23.5575 57.0495 23.5573 56.875C23.5571 56.6412 23.4152 56.4169 23.1631 56.2516C22.9109 56.0863 22.569 55.9935 22.2125 55.9935Z" fill="white"/>
<path d="M22.2126 61.6082C20.7849 61.6082 19.3893 61.3304 18.2022 60.8101C17.0151 60.2898 16.0899 59.5503 15.5435 58.6851C14.9971 57.8199 14.8542 56.8678 15.1327 55.9493C15.4113 55.0308 16.0988 54.187 17.1083 53.5248C18.1178 52.8626 19.404 52.4116 20.8043 52.2289C22.2046 52.0462 23.656 52.14 24.975 52.4984C26.294 52.8568 27.4214 53.4637 28.2146 54.2424C29.0078 55.021 29.4312 55.9365 29.4312 56.873C29.4298 58.1286 28.6689 59.3325 27.3154 60.2203C25.962 61.1081 24.1267 61.6073 22.2126 61.6082ZM22.2126 53.4391C21.176 53.4391 20.1628 53.6407 19.3009 54.0185C18.4391 54.3963 17.7673 54.9332 17.3706 55.5613C16.974 56.1895 16.8702 56.8808 17.0724 57.5476C17.2746 58.2145 17.7738 58.8271 18.5067 59.3078C19.2397 59.7886 20.1735 60.1161 21.1901 60.2487C22.2068 60.3813 23.2605 60.3133 24.2182 60.0531C25.1758 59.7929 25.9943 59.3522 26.5702 58.7869C27.1461 58.2215 27.4535 57.5569 27.4535 56.8769C27.4535 56.4255 27.3179 55.9784 27.0545 55.5613C26.7911 55.1443 26.4051 54.7653 25.9184 54.446C25.4318 54.1268 24.854 53.8736 24.2182 53.7008C23.5823 53.528 22.9008 53.4391 22.2126 53.4391Z" fill="white"/>
<path d="M47.5557 51.5002H45.578C45.3157 51.5002 45.0642 51.4319 44.8787 51.3103C44.6933 51.1886 44.5891 51.0236 44.5891 50.8516C44.5891 50.6796 44.6933 50.5146 44.8787 50.393C45.0642 50.2713 45.3157 50.203 45.578 50.203H47.5557C47.818 50.203 48.0695 50.2713 48.2549 50.393C48.4404 50.5146 48.5446 50.6796 48.5446 50.8516C48.5446 51.0236 48.4404 51.1886 48.2549 51.3103C48.0695 51.4319 47.818 51.5002 47.5557 51.5002Z" fill="white"/>
<path d="M36.1839 51.5002H34.2061C33.9439 51.5002 33.6924 51.4319 33.5069 51.3103C33.3215 51.1886 33.2173 51.0236 33.2173 50.8516C33.2173 50.6796 33.3215 50.5146 33.5069 50.393C33.6924 50.2713 33.9439 50.203 34.2061 50.203H36.1839C36.4461 50.203 36.6977 50.2713 36.8831 50.393C37.0685 50.5146 37.1727 50.6796 37.1727 50.8516C37.1727 51.0236 37.0685 51.1886 36.8831 51.3103C36.6977 51.4319 36.4461 51.5002 36.1839 51.5002Z" fill="white"/>
<path d="M39.3158 39.8246H27.0788C26.8166 39.8246 26.565 39.7562 26.3796 39.6346C26.1941 39.513 26.09 39.348 26.09 39.1759V36.5814C26.09 36.4093 26.1941 36.2444 26.3796 36.1227C26.565 36.0011 26.8166 35.9327 27.0788 35.9327H39.3158C39.5781 35.9327 39.8296 36.0011 40.0151 36.1227C40.2005 36.2444 40.3047 36.4093 40.3047 36.5814V39.1759C40.3047 39.348 40.2005 39.513 40.0151 39.6346C39.8296 39.7562 39.5781 39.8246 39.3158 39.8246ZM28.0677 38.5273H38.327V37.23H28.0677V38.5273Z" fill="white"/>
<path d="M48.1938 37.23H18.2008C17.9385 37.23 17.687 37.1616 17.5015 37.04C17.3161 36.9184 17.2119 36.7534 17.2119 36.5814C17.2119 36.4093 17.3161 36.2444 17.5015 36.1227C17.687 36.0011 17.9385 35.9327 18.2008 35.9327H48.1938C48.456 35.9327 48.7075 36.0011 48.893 36.1227C49.0784 36.2444 49.1826 36.4093 49.1826 36.5814C49.1826 36.7534 49.0784 36.9184 48.893 37.04C48.7075 37.1616 48.456 37.23 48.1938 37.23Z" fill="white"/>
<path d="M45.7758 37.2274H27.8559C27.5937 37.2274 27.3421 37.1591 27.1567 37.0374C26.9712 36.9158 26.8671 36.7508 26.8671 36.5788C26.8671 36.4067 26.9712 36.2418 27.1567 36.1201C27.3421 35.9985 27.5937 35.9301 27.8559 35.9301H44.787V27.6787C44.787 27.5775 44.7257 27.4805 44.6167 27.409C44.5076 27.3375 44.3597 27.2973 44.2055 27.2973H29.4262C29.2721 27.2975 29.1243 27.3377 29.0153 27.4092C28.9064 27.4807 28.845 27.5776 28.8448 27.6787V30.0527C28.8448 30.2248 28.7406 30.3898 28.5551 30.5114C28.3697 30.633 28.1182 30.7014 27.8559 30.7014C27.5937 30.7014 27.3421 30.633 27.1567 30.5114C26.9712 30.3898 26.8671 30.2248 26.8671 30.0527V27.6787C26.8679 27.2336 27.1377 26.807 27.6175 26.4922C28.0972 26.1775 28.7477 26.0005 29.4262 26H44.2025C44.8815 26 45.5328 26.1768 46.0132 26.4916C46.4936 26.8063 46.7639 27.2333 46.7646 27.6787V36.5788C46.7646 36.7508 46.6605 36.9158 46.475 37.0374C46.2896 37.1591 46.0381 37.2274 45.7758 37.2274Z" fill="white"/>
<path d="M36.8147 37.23H21.2453C20.9831 37.23 20.7315 37.1616 20.5461 37.04C20.3607 36.9184 20.2565 36.7534 20.2565 36.5813V31.0815C20.2573 30.6362 20.5272 30.2093 21.0071 29.8943C21.487 29.5794 22.1378 29.4022 22.8166 29.4015H35.2425C35.9215 29.402 36.5725 29.5792 37.0526 29.8941C37.5327 30.2091 37.8028 30.6361 37.8036 31.0815V36.5813C37.8036 36.7534 37.6994 36.9184 37.514 37.04C37.3285 37.1616 37.077 37.23 36.8147 37.23ZM22.2342 35.9327H35.8259V31.0815C35.8256 30.98 35.7641 30.8828 35.6547 30.8111C35.5454 30.7393 35.3971 30.6989 35.2425 30.6988H22.8166C22.662 30.699 22.5139 30.7393 22.4047 30.8111C22.2955 30.8828 22.2342 30.9801 22.2342 31.0815V35.9327Z" fill="white"/>
</svg>
