<svg width="85" height="85" viewBox="0 0 85 85" fill="none" xmlns="http://www.w3.org/2000/svg">
<circle cx="42.5" cy="42.5" r="42" stroke="white"/>
<path d="M69.0957 43.0068C69.0962 41.9762 68.9604 40.9474 68.6908 39.932L66.4616 40.1875C68.1212 46.4263 64.1314 52.7317 56.2249 56.3657L54.4024 54.4139C53.7858 53.7594 53.7323 52.9419 54.2598 52.2548L54.7742 51.5804C54.9648 51.3286 55.357 51.1695 55.7857 51.1706H57.3811C58.7705 51.1735 60.0213 50.6183 60.5334 49.7711L62.0642 47.2594C62.2255 46.9967 62.3084 46.7155 62.3073 46.4321V44.7992C62.3089 44.4053 62.0703 44.027 61.6443 43.749L60.2864 42.8586C59.5981 42.4064 58.5457 42.2944 57.6739 42.5803L54.8896 43.4939C54.5714 43.5983 54.1969 43.5983 53.8781 43.4939L49.3525 42.0096C48.9702 41.8842 48.7293 41.6276 48.7304 41.3475V39.2961C48.7304 38.4764 47.7173 37.8117 46.4676 37.8117C45.8428 37.8117 45.3362 37.4794 45.3362 37.0696V36.3274C45.3362 36.0941 45.5042 35.8741 45.7887 35.7338L49.4094 33.9527L48.0515 32.7652L44.4313 34.5463C43.5789 34.9681 43.0762 35.6273 43.0734 36.3274V37.0696C43.0734 38.2991 44.5932 39.2961 46.4676 39.2961V41.3475C46.4632 42.1915 47.1908 42.9637 48.3437 43.3388L52.8693 44.8231C53.8256 45.1351 54.9493 45.1351 55.9056 44.8231L58.6904 43.9103L60.0478 44.8006V46.4335C60.0483 46.5278 60.0202 46.6212 59.9666 46.7089L58.4346 49.221C58.2645 49.5036 57.8474 49.6888 57.3845 49.6877H55.789C54.5024 49.6848 53.3251 50.1621 52.7539 50.9184L52.239 51.5931C51.3595 52.7379 51.449 54.1004 52.4754 55.1916L54.3195 57.1666C47.3499 59.7985 38.8671 60.05 31.5638 57.842L32.9521 57.234C33.1366 57.1528 33.3537 57.1089 33.5764 57.1079H36.4783C37.3794 57.1097 38.244 56.8748 38.8793 56.4556L42.079 54.3567C42.7176 53.9399 43.0762 53.3728 43.0734 52.7817V49.354C43.0734 48.9517 42.9071 48.5571 42.5928 48.2117L40.1758 45.5606C39.5577 44.8985 38.46 44.4937 37.2761 44.4912H34.1012C32.9648 44.4904 31.903 44.8626 31.2727 45.4826L30.0225 46.7176H27.2338C25.9841 46.7176 24.971 47.3822 24.971 48.202V49.6196C24.971 49.8715 24.7759 50.1063 24.4528 50.2429L20.9226 51.7363C18.3908 49.1278 17.0473 46.0991 17.0511 43.0068C17.0511 42.7583 17.0622 42.5111 17.0793 42.2647H19.0471C19.4758 42.264 19.868 42.4231 20.0586 42.6753L21.3834 44.4169C21.7662 44.9195 22.5507 45.2359 23.4075 45.2333H24.6019C25.3129 45.234 25.983 45.0159 26.4112 44.6437C26.8399 44.2716 26.9769 43.7892 26.7813 43.341L25.34 40.0382H27.573C28.3442 40.0382 29.0916 39.8661 29.6932 39.5501L33.3863 37.6121C34.5757 36.9859 34.984 35.9168 34.3851 34.9968L32.4483 32.0281C32.2251 31.6868 32.4212 31.29 32.9068 31.099L35.7557 29.9778C36.7883 29.5694 37.4153 28.833 37.4037 28.0419L37.3849 26.9562C41.0338 26.5069 44.7904 26.5996 48.3774 27.228L48.9569 25.797C37.7202 23.826 25.8178 26.7682 19.3592 33.1135C12.9006 39.4588 13.3199 47.7975 20.4022 53.8497C27.4846 59.9022 39.6565 62.3233 50.6706 59.8707C61.6847 57.4181 69.094 50.6364 69.0957 43.0068ZM35.1254 27.3074L35.1387 28.0629C35.1436 28.3268 34.9343 28.5721 34.589 28.7076L31.7389 29.8292C30.2882 30.405 29.7032 31.5929 30.3667 32.6166L32.3035 35.5853C32.5041 35.8918 32.3682 36.2488 31.971 36.4575L28.2779 38.3952C28.0773 38.4988 27.8287 38.5546 27.573 38.5539H25.34C24.629 38.5532 23.9589 38.7717 23.5307 39.1439C23.102 39.5157 22.965 39.9984 23.1606 40.4466L24.6019 43.749H23.4075L22.0822 42.011C21.511 41.2547 20.3337 40.7775 19.0471 40.7804H17.2887C18.651 34.3713 25.6422 29.0907 35.1254 27.3074ZM22.2214 52.9517L25.6792 51.4898C26.6498 51.0811 27.2354 50.3759 27.2338 49.6196V48.202H30.0225C30.7793 48.202 31.4859 47.9537 31.9052 47.5406L33.1598 46.306C33.3697 46.0994 33.7233 45.9755 34.1012 45.9755H37.2761C37.6678 45.9758 38.0318 46.1088 38.2379 46.3274L40.6498 48.9738C40.7554 49.0887 40.8106 49.2199 40.8106 49.354V52.7817C40.8106 52.9789 40.6918 53.168 40.4791 53.3072L37.2794 55.4061C37.0672 55.5456 36.7789 55.6239 36.4783 55.6235H33.5764C32.9057 55.6235 32.2494 55.754 31.6914 55.9982L29.2783 57.0553C26.552 55.9924 24.1572 54.5998 22.2214 52.9517Z" fill="white"/>
<path d="M10.3395 43.7291L8.08276 43.8324C8.1358 44.3346 8.2159 44.8431 8.32142 45.3424L10.5638 45.1391C10.4654 44.6731 10.3892 44.1944 10.3395 43.7291Z" fill="white"/>
<path d="M13.7703 32.7482L11.76 32.0669C11.4069 32.5119 11.0727 32.9776 10.7672 33.4421L12.845 34.0306C13.1322 33.5972 13.4444 33.166 13.7703 32.7482Z" fill="white"/>
<path d="M10.9324 46.5358L8.71704 46.8409C8.8756 47.3359 9.0568 47.8317 9.2695 48.3165L11.4462 47.9136C11.2528 47.4598 11.0799 46.9982 10.9324 46.5358Z" fill="white"/>
<path d="M10.9043 38.0835L8.68675 37.7867C8.53428 38.2785 8.4039 38.7833 8.30225 39.2848L10.5447 39.4816C10.6397 39.0134 10.7607 38.5427 10.9043 38.0835Z" fill="white"/>
<path d="M16.0137 30.3229L14.1625 29.468C13.7217 29.8797 13.2952 30.308 12.8958 30.7407L14.8304 31.5104C15.2039 31.1056 15.6022 30.7066 16.0137 30.3229Z" fill="white"/>
<path d="M12.0571 35.3516L9.92359 34.8588C9.66671 35.3375 9.43359 35.8238 9.22864 36.309L11.4102 36.7047C11.5991 36.2532 11.8173 35.7984 12.0571 35.3516Z" fill="white"/>
<path d="M10.3318 40.8924L8.06905 40.796C8.0232 41.2805 8 41.7701 8 42.2648V42.3123L10.2628 42.2648C10.2628 41.8042 10.286 41.3469 10.3318 40.8924Z" fill="white"/>
<path d="M12.1035 49.2642L9.97437 49.7643C10.2346 50.2408 10.5207 50.7152 10.8273 51.1743L12.9012 50.5807C12.6151 50.1509 12.3466 49.7088 12.1035 49.2642Z" fill="white"/>
<path d="M18.7358 28.1185L17.0784 27.1085C16.5547 27.4796 16.0431 27.8648 15.5603 28.2551L17.3182 29.1904C17.7684 28.8251 18.2463 28.4646 18.7358 28.1185Z" fill="white"/>
<path d="M37.5298 21.6856L37.2127 20.2146C36.4548 20.2838 35.6869 20.3719 34.9312 20.4759L35.3958 21.9298C36.1007 21.8312 36.8183 21.7493 37.5298 21.6856Z" fill="white"/>
<path d="M41.8384 21.4844L41.829 20C41.055 20 40.2766 20.0203 39.5154 20.0558L39.6761 21.5402C40.3904 21.5028 41.1108 21.4844 41.8384 21.4844Z" fill="white"/>
<path d="M33.2958 22.2681L32.6815 20.8396C31.9451 20.9759 31.2015 21.1317 30.4756 21.3034L31.2402 22.7001C31.918 22.5406 32.6091 22.3957 33.2958 22.2681Z" fill="white"/>
<path d="M21.8866 26.1787L20.4541 25.0299C19.8591 25.3488 19.273 25.6858 18.7134 26.0308L20.2619 27.1129C20.7845 26.7908 21.3325 26.4762 21.8866 26.1787Z" fill="white"/>
<path d="M29.2342 23.2241L28.3287 21.8645C27.6288 22.0656 26.9272 22.2867 26.2427 22.5211L27.2901 23.8362C27.926 23.6173 28.5801 23.414 29.2342 23.2241Z" fill="white"/>
<path d="M25.408 24.5356L24.2242 23.2701C23.5679 23.5343 22.9187 23.8163 22.2939 24.108L23.6054 25.3176C24.1893 25.0469 24.7948 24.7817 25.408 24.5356Z" fill="white"/>
<path d="M54.5854 61.3241L55.4909 62.6844C56.1958 62.4833 56.8968 62.263 57.578 62.0307L56.5372 60.7139C55.8991 60.9306 55.2428 61.1364 54.5854 61.3241Z" fill="white"/>
<path d="M65.0995 56.4444L66.7541 57.4584C67.2789 57.0873 67.7916 56.7042 68.2766 56.3132L66.522 55.3757C66.0685 55.741 65.5884 56.1009 65.0995 56.4444Z" fill="white"/>
<path d="M61.9434 58.3809L63.3731 59.5311C63.9681 59.2126 64.5542 58.8767 65.1166 58.5327L63.5725 57.4478C63.0449 57.771 62.5019 58.0819 61.9434 58.3809Z" fill="white"/>
<path d="M67.8308 54.2447L69.6787 55.1042C70.1223 54.6922 70.551 54.2653 70.9504 53.8334L69.018 53.0619C68.6434 53.4609 68.2451 53.8602 67.8308 54.2447Z" fill="white"/>
<path d="M58.4167 60.0178L59.5923 61.2847C60.2464 61.0227 60.8967 60.7422 61.5259 60.4505L60.2177 59.2394C59.6354 59.5119 59.0266 59.7739 58.4167 60.0178Z" fill="white"/>
<path d="M50.5205 62.274L51.1315 63.7036C51.8701 63.5677 52.6137 63.4126 53.3391 63.2434L52.5772 61.8453C51.8983 62.0062 51.2094 62.1479 50.5205 62.274Z" fill="white"/>
<path d="M73.5491 43.6832L75.8063 43.7825C75.8583 43.2795 75.8842 42.7689 75.8842 42.2648H73.6214C73.6214 42.7413 73.5971 43.2142 73.5491 43.6832Z" fill="white"/>
<path d="M72.9663 46.4908L75.1827 46.7876C75.3379 46.2955 75.4688 45.7907 75.5732 45.2899L73.3309 45.0902C73.2337 45.5613 73.111 46.0313 72.9663 46.4908Z" fill="white"/>
<path d="M71.8044 49.2203L73.9358 49.7168C74.1949 49.2388 74.4302 48.7521 74.6363 48.268L72.4563 47.869C72.2635 48.3195 72.0442 48.7742 71.8044 49.2203Z" fill="white"/>
<path d="M70.0791 51.8222L72.0884 52.506C72.4425 52.0606 72.7773 51.5968 73.0839 51.1329L71.0089 50.5389C70.7227 50.9731 70.4095 51.4043 70.0791 51.8222Z" fill="white"/>
<path d="M13.8322 51.8573L11.8263 52.5444C12.1826 52.9897 12.5666 53.4351 12.966 53.8645L14.9017 53.0905C14.5239 52.6908 14.1664 52.2758 13.8322 51.8573Z" fill="white"/>
<path d="M20.5587 59.5573C21.1581 59.8769 21.7796 60.1857 22.405 60.4752L23.706 59.2601C23.1171 58.9873 22.542 58.7017 21.9807 58.4038L20.5587 59.5573Z" fill="white"/>
<path d="M28.457 62.703C29.1597 62.9027 29.8862 63.0904 30.6171 63.2604L31.3717 61.8608C30.6928 61.7018 30.0138 61.5275 29.3586 61.3412L28.457 62.703Z" fill="white"/>
<path d="M24.3407 61.3057C25.0014 61.5691 25.6815 61.8192 26.3626 62.0479L27.4023 60.7288C26.7665 60.5135 26.1328 60.2798 25.5152 60.0341L24.3407 61.3057Z" fill="white"/>
<path d="M17.1646 57.4844C17.6927 57.8555 18.2451 58.2153 18.8036 58.5574L20.3472 57.471C19.8246 57.1517 19.3086 56.8147 18.8152 56.4697L17.1646 57.4844Z" fill="white"/>
<path d="M16.0862 54.2751L14.24 55.1329C14.6847 55.5442 15.1565 55.9493 15.6426 56.3414L17.3906 55.4011C16.9381 55.0372 16.5006 54.6589 16.0862 54.2751Z" fill="white"/>
<path d="M46.2898 62.851L46.5964 64.3212C47.356 64.2527 48.1239 64.1668 48.8796 64.0635L48.4206 62.6104C47.7123 62.706 46.9986 62.7872 46.2898 62.851Z" fill="white"/>
<path d="M37.3613 64.3284C38.1182 64.3954 38.8932 64.4465 39.6655 64.4769L39.8163 62.9926C39.0932 62.9615 38.3701 62.9133 37.6668 62.851L37.3613 64.3284Z" fill="white"/>
<path d="M41.9758 63.0452V64.5295C42.7509 64.5295 43.5294 64.5118 44.2912 64.477L44.136 62.9927C43.4233 63.0278 42.7034 63.0452 41.9758 63.0452Z" fill="white"/>
<path d="M32.8264 63.7169C33.57 63.8524 34.328 63.9728 35.0782 64.0739L35.5306 62.62C34.8301 62.5258 34.123 62.4135 33.4308 62.2874L32.8264 63.7169Z" fill="white"/>
<path d="M51.2199 26.263L50.5691 33.5215C50.4747 34.5796 51.0741 35.6138 52.2165 36.364L54.4114 37.8023L58.4061 30.9841L62.4445 33.6327V36.9086C62.4428 37.4982 62.8008 38.0643 63.4389 38.4796L65.4006 39.7675L67.8004 37.1438L68.3761 37.5207C69.2285 38.0998 70.4903 38.3317 71.6775 38.128C72.8641 37.9244 73.7905 37.3163 74.1016 36.5379C74.412 35.7595 74.0579 34.9315 73.1757 34.3727L72.6011 33.9954L76.6014 32.4209L74.6397 31.1323C74.0049 30.713 73.1409 30.4782 72.2398 30.48H67.2435L63.2124 27.8321L73.6127 25.2084L71.4128 23.768C70.2709 23.0178 68.6937 22.625 67.0811 22.6881L56.0157 23.1149L52.3762 20.7265C51.0326 19.8858 48.919 19.8858 47.5755 20.7265C46.2496 21.5962 46.2496 23.0059 47.5755 23.8756L51.2199 26.263ZM53.5573 35.1228C53.0391 34.6938 52.7795 34.1545 52.8275 33.6081L53.3601 27.6708L56.6593 29.8349L53.5573 35.1228ZM64.9548 37.3663C64.7951 37.2344 64.7078 37.071 64.7073 36.9025V35.1134L66.1541 36.061L64.9548 37.3663ZM72.2387 31.9621C72.4956 31.9625 72.7448 32.0197 72.9459 32.1245L70.9526 32.9134L69.5075 31.9665L72.2387 31.9621ZM67.2132 24.1695C68.0462 24.1372 68.8688 24.3079 69.5224 24.6482L61.4567 26.683L58.1575 24.5188L67.2132 24.1695ZM49.1764 21.7767C49.6178 21.4875 50.3333 21.4875 50.7752 21.7767L71.5758 35.4214C72.0167 35.711 72.0167 36.1802 71.5758 36.4698C71.1283 36.7506 70.4234 36.7506 69.9759 36.4698L49.1764 22.8254C48.7356 22.5355 48.7356 22.0666 49.1764 21.7767Z" fill="white"/>
</svg>
