<svg width="85" height="85" viewBox="0 0 85 85" fill="none" xmlns="http://www.w3.org/2000/svg">
<circle cx="42.5" cy="42.5" r="42" stroke="white"/>
<path d="M28.2501 27.275C28.2506 27.0165 28.4114 26.7687 28.6973 26.5859C28.9832 26.4031 29.3708 26.3003 29.7751 26.3H57.2251C57.6294 26.3003 58.017 26.4031 58.3029 26.5859C58.5888 26.7687 58.7496 27.0165 58.7501 27.275V30.85H60.7834V27.275C60.7823 26.6718 60.4071 26.0936 59.74 25.6671C59.0729 25.2406 58.1685 25.0007 57.2251 25H29.7751C28.8317 25.0007 27.9273 25.2406 27.2602 25.6671C26.5931 26.0936 26.2179 26.6718 26.2168 27.275V30.85H28.2501V27.275Z" fill="white"/>
<path d="M58.7501 58.8H28.2501V56.85H26.2168V61.725C26.2179 62.3281 26.5931 62.9064 27.2602 63.3329C27.9273 63.7594 28.8317 63.9993 29.7751 64H57.2251C58.1685 63.9993 59.0729 63.7594 59.74 63.3329C60.4071 62.9064 60.7823 62.3281 60.7834 61.725V56.85H58.7501V58.8ZM57.2251 62.7H29.7751C29.3708 62.6997 28.9832 62.5969 28.6973 62.4141C28.4114 62.2313 28.2506 61.9835 28.2501 61.725V60.1H58.7501V61.725C58.7496 61.9835 58.5888 62.2313 58.3029 62.4141C58.017 62.5969 57.6294 62.6997 57.2251 62.7Z" fill="white"/>
<path d="M39.4333 28.25H47.5667V29.55H39.4333V28.25Z" fill="white"/>
<path d="M71.9667 54.0875C71.9667 54.1306 71.9399 54.1719 71.8922 54.2024C71.8446 54.2329 71.7799 54.25 71.7125 54.25H15.2875C15.2201 54.25 15.1554 54.2329 15.1078 54.2024C15.0601 54.1719 15.0333 54.1306 15.0333 54.0875V37.35H13V54.0875C13.0007 54.4752 13.2419 54.8469 13.6708 55.1211C14.0996 55.3953 14.681 55.5495 15.2875 55.55H71.7125C72.319 55.5495 72.9004 55.3953 73.3292 55.1211C73.7581 54.8469 73.9993 54.4752 74 54.0875V49.05H71.9667V54.0875Z" fill="white"/>
<path d="M71.7125 32.15H15.2875C14.681 32.1505 14.0996 32.3047 13.6708 32.5789C13.2419 32.8531 13.0007 33.2248 13 33.6125V36.05H15.0333V33.6125C15.0333 33.5694 15.0601 33.5281 15.1078 33.4976C15.1554 33.4671 15.2201 33.45 15.2875 33.45H71.7125C71.7799 33.45 71.8446 33.4671 71.8922 33.4976C71.9399 33.5281 71.9667 33.5694 71.9667 33.6125V47.75H74V33.6125C73.9993 33.2248 73.7581 32.8531 73.3292 32.5789C72.9004 32.3047 72.319 32.1505 71.7125 32.15Z" fill="white"/>
<path d="M50.6166 49.05H52.6499V51.65H50.6166V49.05Z" fill="white"/>
<path d="M46.55 49.05H48.5833V51.65H46.55V49.05Z" fill="white"/>
<path d="M54.6833 49.05H58.75V51.65H54.6833V49.05Z" fill="white"/>
<path d="M60.7832 49.05H62.8166V51.65H60.7832V49.05Z" fill="white"/>
<path d="M64.85 49.05H68.9166V51.65H64.85V49.05Z" fill="white"/>
<path d="M46.55 42.55H60.7833V43.85H46.55V42.55Z" fill="white"/>
<path d="M62.8167 42.55H68.9167V43.85H62.8167V42.55Z" fill="white"/>
<path d="M54.6833 45.15H68.9167V46.45H54.6833V45.15Z" fill="white"/>
<path d="M46.55 45.15H52.65V46.45H46.55V45.15Z" fill="white"/>
<path d="M46.55 39.95H50.6167V41.25H46.55V39.95Z" fill="white"/>
<path d="M52.65 39.95H60.7833V41.25H52.65V39.95Z" fill="white"/>
<path d="M58.75 36.05H60.7833V37.35H58.75V36.05Z" fill="white"/>
<path d="M62.8167 36.05H64.85V37.35H62.8167V36.05Z" fill="white"/>
<path d="M66.8834 36.05H68.9167V37.35H66.8834V36.05Z" fill="white"/>
<path d="M46.55 37.35H55.7V38.65H46.55V37.35Z" fill="white"/>
<path d="M41.4667 52.95C41.7363 52.95 41.9949 52.8815 42.1856 52.7596C42.3763 52.6377 42.4834 52.4724 42.4834 52.3V35.4C42.4834 35.2276 42.3763 35.0623 42.1856 34.9404C41.9949 34.8185 41.7363 34.75 41.4667 34.75H19.1C18.8304 34.75 18.5718 34.8185 18.3811 34.9404C18.1905 35.0623 18.0834 35.2276 18.0834 35.4V52.3C18.0834 52.4724 18.1905 52.6377 18.3811 52.7596C18.5718 52.8815 18.8304 52.95 19.1 52.95H41.4667ZM20.1167 50.0892C20.1185 49.7256 20.2928 49.3709 20.6168 49.072C20.9407 48.7731 21.3989 48.5442 21.9308 48.4154L26.8775 47.23L27.4367 47.707C27.7682 47.9896 28.1979 48.2189 28.692 48.3768C29.1861 48.5348 29.731 48.617 30.2834 48.617C30.8358 48.617 31.3806 48.5348 31.8747 48.3768C32.3688 48.2189 32.7986 47.9896 33.13 47.707L33.6892 47.23L38.6355 48.4163C39.1673 48.5449 39.6255 48.7737 39.9494 49.0724C40.2734 49.3711 40.448 49.7257 40.45 50.0892V51.65H20.1167V50.0892ZM32.2004 46.3324L31.5034 46.9267C31.3613 47.0478 31.1771 47.1461 30.9654 47.2138C30.7536 47.2815 30.5201 47.3167 30.2834 47.3167C30.0466 47.3167 29.8131 47.2815 29.6014 47.2138C29.3896 47.1461 29.2054 47.0478 29.0634 46.9267L28.3663 46.3324L28.9828 45.15H31.5839L32.2004 46.3324ZM33.3334 42.875C33.3329 43.1335 33.1721 43.3813 32.8862 43.5641C32.6003 43.7469 32.2127 43.8497 31.8084 43.85H28.7584C28.354 43.8497 27.9664 43.7469 27.6805 43.5641C27.3946 43.3813 27.2338 43.1335 27.2334 42.875V39.625C27.2338 39.3665 27.3946 39.1187 27.6805 38.9359C27.9664 38.7531 28.354 38.6503 28.7584 38.65H31.8084C32.2127 38.6503 32.6003 38.7531 32.8862 38.9359C33.1721 39.1187 33.3329 39.3665 33.3334 39.625V42.875ZM40.45 36.05V47.5732C40.1105 47.4181 39.7406 47.292 39.3499 47.1982L34.1444 45.9502L33.5711 44.8507C34.1162 44.6518 34.5694 44.3643 34.8847 44.0173C35.2 43.6703 35.3663 43.2763 35.3667 42.875V39.625C35.3656 39.0218 34.9904 38.4436 34.3233 38.0171C33.6562 37.5906 32.7518 37.3507 31.8084 37.35H28.7584C27.815 37.3507 26.9105 37.5906 26.2434 38.0171C25.5764 38.4436 25.2011 39.0218 25.2 39.625V42.875C25.2004 43.2763 25.3667 43.6703 25.682 44.0173C25.9973 44.3643 26.4505 44.6518 26.9956 44.8507L26.4223 45.9502L21.2169 47.1982C20.8261 47.292 20.4563 47.4181 20.1167 47.5732V36.05H40.45Z" fill="white"/>
</svg>
