<svg width="85" height="85" viewBox="0 0 85 85" fill="none" xmlns="http://www.w3.org/2000/svg">
<circle cx="42.5" cy="42.5" r="42" stroke="white"/>
<path d="M40.1359 21.042C39.1118 20.3701 37.75 20 36.3014 20C35.1962 20 34.1412 20.2155 33.2483 20.6161C32.3554 20.2154 31.3005 20 30.1953 20C28.7468 20 27.3849 20.3701 26.3608 21.0419C25.3363 21.7138 24.7722 22.607 24.7722 23.5573C24.7722 24.5075 25.3363 25.4009 26.3608 26.0728L32.4669 30.0779C32.6827 30.2195 32.9656 30.2903 33.2485 30.2903C33.5313 30.2903 33.8143 30.2195 34.0303 30.0778L40.1359 26.0727C42.2497 24.6855 42.2495 22.4288 40.1359 21.042ZM38.5722 25.0473L33.2486 28.5396L27.9243 25.0473C27.3176 24.6493 26.9835 24.1202 26.9835 23.5574C26.9835 22.9947 27.3173 22.4655 27.9242 22.0676C28.5307 21.6696 29.3373 21.4504 30.1953 21.4504C31.0532 21.4504 31.8599 21.6696 32.4669 22.0677C32.6741 22.2036 32.9554 22.28 33.2486 22.28C33.5419 22.28 33.823 22.2036 34.0303 22.0676C34.6368 21.6696 35.4434 21.4504 36.3014 21.4504C37.1593 21.4504 37.9657 21.6696 38.5722 22.0676C39.8243 22.889 39.8242 24.2258 38.5722 25.0473Z" fill="white"/>
<path d="M50.3495 28.9149C49.7331 28.5102 48.9133 28.2875 48.0411 28.2875C47.5001 28.2875 46.9793 28.3733 46.5148 28.5349C46.0501 28.3733 45.5291 28.2875 44.9882 28.2875C44.1161 28.2875 43.2961 28.5103 42.68 28.9147C42.0635 29.319 41.7239 29.8568 41.7239 30.4287C41.7239 31.0007 42.0633 31.5385 42.68 31.9429L45.7335 33.9456C45.9407 34.0816 46.222 34.158 46.5153 34.158C46.8084 34.158 47.0897 34.0816 47.2969 33.9455L50.3495 31.9428C51.6219 31.1079 51.6219 29.7494 50.3495 28.9149ZM48.7856 30.9176L46.515 32.4073L44.2434 30.9175C44.0445 30.787 43.935 30.6134 43.935 30.4288C43.935 30.2442 44.0445 30.0707 44.2436 29.9401C44.4424 29.8097 44.7068 29.7378 44.988 29.7378C45.2696 29.7378 45.5343 29.8098 45.7334 29.9404C45.9407 30.0763 46.2219 30.1527 46.515 30.1527H46.5154C46.8087 30.1526 47.0898 30.0761 47.297 29.9401C47.4957 29.8097 47.7598 29.7379 48.0409 29.7379C48.3222 29.7379 48.5866 29.8098 48.7856 29.9404C49.1963 30.2097 49.196 30.648 48.7856 30.9176Z" fill="white"/>
<path d="M68.2627 31.6803C67.9886 31.6803 61.5116 31.706 58.1008 33.9434L51.2468 38.4394L18.4991 33.0698C18.4913 33.0685 18.4831 33.0679 18.4753 33.0667C18.4542 33.0636 18.4332 33.0608 18.4121 33.0585C18.3961 33.0567 18.3801 33.0552 18.3642 33.054C18.3452 33.0525 18.3262 33.0514 18.307 33.0505C18.2893 33.0497 18.2716 33.0491 18.2539 33.0489C18.236 33.0487 18.2181 33.0488 18.2003 33.0491C18.1824 33.0495 18.1645 33.05 18.1467 33.0508C18.1282 33.0518 18.1098 33.0532 18.0914 33.0547C18.0751 33.0561 18.0588 33.0574 18.0429 33.0593C18.0222 33.0616 18.0018 33.0645 17.9812 33.0676C17.968 33.0697 17.955 33.0715 17.942 33.0739C17.9189 33.0779 17.8961 33.0828 17.8734 33.0879C17.8634 33.0901 17.8533 33.0923 17.8433 33.0948C17.8191 33.1008 17.7954 33.1074 17.7717 33.1145C17.7632 33.117 17.7548 33.1195 17.7465 33.1222C17.7232 33.1296 17.7005 33.1377 17.678 33.1463C17.6692 33.1496 17.6602 33.153 17.6516 33.1565C17.6313 33.1647 17.6114 33.1735 17.5919 33.1825C17.5807 33.1877 17.5699 33.193 17.559 33.1983C17.5427 33.2065 17.5267 33.2151 17.5111 33.2239C17.4975 33.2316 17.4844 33.2395 17.4714 33.2475C17.4642 33.2519 17.4565 33.2559 17.4495 33.2605L14.323 35.3111C14.3177 35.3146 14.3133 35.3185 14.3081 35.3219C14.294 35.3316 14.2804 35.3414 14.267 35.3516C14.2545 35.3611 14.2425 35.3707 14.231 35.3805C14.226 35.3847 14.2204 35.3886 14.2155 35.3929C14.2102 35.3976 14.2058 35.4026 14.2007 35.4075C14.1885 35.4189 14.1768 35.4304 14.1657 35.4422C14.1572 35.4511 14.1491 35.4601 14.1414 35.4692C14.1313 35.4809 14.1218 35.4927 14.1129 35.5047C14.1055 35.5147 14.0983 35.5246 14.0916 35.5347C14.0842 35.546 14.0772 35.5574 14.0706 35.5689C14.0643 35.5799 14.0582 35.5912 14.0527 35.6024C14.0475 35.6132 14.0426 35.624 14.0382 35.6349C14.0332 35.647 14.0286 35.659 14.0246 35.6712C14.0212 35.6817 14.0182 35.6922 14.0154 35.7027C14.0123 35.7152 14.0094 35.7277 14.0073 35.7402C14.0054 35.7509 14.004 35.7617 14.0029 35.7724C14.0016 35.7847 14.0006 35.7969 14.0001 35.809C13.9999 35.8204 14 35.8316 14.0004 35.843C14.001 35.8546 14.0017 35.8661 14.003 35.8777C14.0043 35.8897 14.0063 35.9017 14.0084 35.9136C14.0106 35.9244 14.0127 35.935 14.0156 35.9456C14.0187 35.9582 14.0226 35.9707 14.027 35.9831C14.0303 35.9932 14.034 36.0031 14.0382 36.0131C14.0433 36.0257 14.0492 36.0382 14.0555 36.0505C14.0603 36.0604 14.0653 36.07 14.071 36.0798C14.0779 36.0917 14.0853 36.1036 14.0932 36.1153C14.0998 36.1254 14.1069 36.1353 14.1142 36.1451C14.1223 36.1559 14.1311 36.1666 14.1401 36.1772C14.1489 36.1878 14.1584 36.1982 14.1681 36.2084C14.1771 36.2179 14.1865 36.2271 14.1961 36.2364C14.2077 36.2472 14.2197 36.2579 14.2321 36.2685C14.2418 36.2768 14.252 36.2849 14.2624 36.293C14.2761 36.3035 14.2901 36.3138 14.3049 36.3238C14.311 36.328 14.3164 36.3326 14.3227 36.3368C14.3284 36.3405 14.3349 36.3437 14.3406 36.3474C14.3544 36.356 14.3686 36.3644 14.3832 36.3727C14.3985 36.3813 14.414 36.3897 14.4298 36.3977C14.4358 36.4007 14.4412 36.4042 14.4473 36.4072L37.3884 47.5297L26.2711 54.8222L20.6659 53.5962C20.6549 53.5938 20.6439 53.5924 20.6329 53.5902C20.6123 53.5862 20.5916 53.5821 20.5706 53.5789C20.5526 53.5761 20.5346 53.574 20.5164 53.5718C20.4997 53.5697 20.4833 53.5676 20.4666 53.5662C20.4456 53.5643 20.4247 53.5631 20.4038 53.5619C20.3894 53.5612 20.3752 53.5603 20.3608 53.56C20.3388 53.5594 20.3169 53.5595 20.2949 53.5598C20.2811 53.56 20.2675 53.5601 20.2536 53.5605C20.2319 53.5614 20.2103 53.5628 20.1887 53.5645C20.1744 53.5656 20.1603 53.5666 20.1461 53.568C20.1251 53.5702 20.1044 53.5729 20.0837 53.5759C20.0691 53.578 20.0548 53.5799 20.0405 53.5823C20.0195 53.5858 19.9991 53.5901 19.9786 53.5944C19.9649 53.5973 19.9513 53.6 19.9378 53.6033C19.9159 53.6085 19.8943 53.6145 19.873 53.6207C19.8614 53.624 19.8501 53.6271 19.8387 53.6307C19.8144 53.6383 19.791 53.6468 19.7674 53.6556C19.761 53.658 19.7541 53.6599 19.7477 53.6625L19.7332 53.6682C19.7314 53.6689 19.7295 53.6696 19.7278 53.6703L14.546 55.7097C14.5432 55.7108 14.5407 55.7118 14.5381 55.7128L14.5362 55.7136C14.5334 55.7147 14.5311 55.716 14.5282 55.7172C14.5001 55.7285 14.4724 55.7405 14.4456 55.7535C14.4371 55.7577 14.4292 55.7623 14.4209 55.7667C14.4009 55.777 14.381 55.7873 14.3622 55.7985C14.3493 55.8061 14.3377 55.8143 14.3254 55.8222C14.3123 55.8308 14.2989 55.8391 14.2863 55.8482C14.2698 55.8601 14.2548 55.8726 14.2398 55.8851C14.2327 55.8911 14.2248 55.8967 14.218 55.9029C14.1981 55.9203 14.1799 55.9384 14.1626 55.9569C14.1609 55.9587 14.1589 55.9603 14.1572 55.9622C14.1571 55.9624 14.1569 55.9626 14.1568 55.9628C14.1189 56.0042 14.0876 56.0477 14.0632 56.0929C14.0526 56.1123 14.044 56.1318 14.0363 56.1516C14.0352 56.1544 14.0336 56.157 14.0326 56.1598C14.0257 56.1779 14.0206 56.1961 14.0159 56.2143C14.0146 56.2192 14.0127 56.224 14.0117 56.2289C14.0082 56.2443 14.0064 56.2598 14.0044 56.2752C14.0034 56.2834 14.0017 56.2916 14.0011 56.2997C14.0003 56.3114 14.0007 56.3231 14.0009 56.3348C14.0007 56.347 14.0001 56.3591 14.0011 56.3712C14.0017 56.379 14.0033 56.3867 14.0043 56.3945C14.0063 56.4103 14.0082 56.4261 14.0116 56.4419C14.0127 56.4462 14.0143 56.4506 14.0154 56.4549C14.0202 56.4736 14.0254 56.4925 14.0326 56.511C14.0329 56.512 14.0334 56.5128 14.0337 56.5137C14.0469 56.5473 14.0646 56.5805 14.0853 56.6133C14.0915 56.6231 14.0969 56.633 14.1036 56.6426C14.1055 56.645 14.1078 56.6474 14.1095 56.6499C14.1239 56.6694 14.1392 56.6886 14.1561 56.7072C14.1565 56.7076 14.1566 56.7081 14.1571 56.7085C14.1584 56.7099 14.1599 56.711 14.1612 56.7123C14.1827 56.7356 14.2067 56.7579 14.2324 56.7796C14.24 56.786 14.2478 56.7923 14.2557 56.7985C14.2767 56.8151 14.2989 56.831 14.3224 56.8465C14.331 56.8522 14.3394 56.8582 14.3483 56.8637C14.3786 56.8824 14.4103 56.9002 14.4443 56.9167C14.4552 56.9219 14.4668 56.9264 14.4779 56.9314C14.4972 56.9401 14.5159 56.9491 14.5364 56.9571L23.7451 60.5817L22.6615 61.2925C22.2298 61.5757 22.2298 62.0349 22.6615 62.318C22.8775 62.4596 23.1605 62.5304 23.4433 62.5304C23.7261 62.5304 24.0091 62.4597 24.2251 62.318L25.3087 61.6072L30.8284 67.6414C30.83 67.6432 30.8315 67.6449 30.8331 67.6466L30.8343 67.6478C30.8348 67.6484 30.8357 67.649 30.8363 67.6497C30.8586 67.6739 30.8834 67.6971 30.9103 67.7196C30.9173 67.7256 30.9246 67.7313 30.9319 67.7371C30.9535 67.7543 30.9765 67.7708 31.0008 67.7867C31.0089 67.7921 31.0166 67.7976 31.0249 67.8027C31.0555 67.8215 31.0875 67.8396 31.122 67.8563C31.132 67.8612 31.1425 67.8652 31.1528 67.8699C31.1728 67.879 31.1924 67.8883 31.2134 67.8966C31.2179 67.8984 31.2227 67.8995 31.2273 67.9012C31.2543 67.9115 31.2822 67.9202 31.3102 67.9289C31.3275 67.9343 31.3443 67.9403 31.3618 67.945C31.3864 67.9515 31.4117 67.9566 31.4368 67.962C31.4581 67.9666 31.4793 67.972 31.5008 67.9757C31.5226 67.9795 31.5449 67.9816 31.5667 67.9845C31.5916 67.9877 31.6163 67.9918 31.6413 67.9939C31.6712 67.9964 31.7016 67.9969 31.7321 67.9978C31.7485 67.9983 31.765 68 31.7812 68C31.7815 68 31.782 67.9999 31.7822 67.9999C31.7825 67.9999 31.783 68 31.7832 68C31.7997 68 31.8161 67.9983 31.8324 67.9978C31.8627 67.9969 31.8932 67.9964 31.923 67.9939C31.9482 67.9918 31.973 67.9878 31.9981 67.9844C32.0199 67.9816 32.0419 67.9795 32.0635 67.9758C32.0854 67.9721 32.1067 67.9666 32.1283 67.9618C32.1531 67.9565 32.178 67.9515 32.2024 67.945C32.2203 67.9402 32.2376 67.9341 32.2553 67.9286C32.2828 67.92 32.3102 67.9114 32.3365 67.9013C32.3413 67.8995 32.3462 67.8983 32.3511 67.8965C32.3729 67.8879 32.3934 67.8782 32.414 67.8688C32.4232 67.8645 32.433 67.8609 32.442 67.8564C32.4767 67.8395 32.5089 67.8214 32.5397 67.8024C32.5477 67.7974 32.5553 67.7921 32.563 67.7869C32.5875 67.7708 32.6108 67.7542 32.6328 67.7368C32.6399 67.731 32.6472 67.7253 32.6541 67.7194C32.6806 67.697 32.7057 67.6739 32.7279 67.6497C32.7287 67.649 32.7295 67.6483 32.7302 67.6475L32.7315 67.646C32.7329 67.6444 32.7345 67.6428 32.736 67.6412L35.8569 64.2288C35.8638 64.2213 35.8692 64.2135 35.8755 64.2059C35.8849 64.1948 35.8945 64.1836 35.9029 64.1721C35.9112 64.1608 35.9186 64.1494 35.9259 64.1379C35.9324 64.1278 35.9392 64.1177 35.9449 64.1075C35.9519 64.095 35.9581 64.0825 35.9639 64.0698C35.9687 64.06 35.9734 64.0502 35.9775 64.0402C35.9825 64.0275 35.9867 64.0148 35.9908 64.002C35.9941 63.9916 35.9974 63.9811 36 63.9705C36.0028 63.9584 36.005 63.9463 36.007 63.9342C36.0088 63.9226 36.0107 63.911 36.0118 63.8994C36.0128 63.8881 36.0131 63.8769 36.0132 63.8656C36.0135 63.8536 36.0137 63.8411 36.013 63.8285C36.0122 63.8178 36.0108 63.8071 36.0095 63.7965C36.008 63.7838 36.0062 63.7709 36.0037 63.7581C36.0012 63.7469 35.998 63.7359 35.995 63.7248C35.9915 63.7128 35.9884 63.7009 35.9839 63.6889C35.9794 63.6764 35.9738 63.6642 35.9681 63.6518C35.9645 63.6434 35.9618 63.6351 35.9575 63.6268L34.0884 59.95L65.913 39.0743C65.9145 39.0731 65.9164 39.0722 65.9181 39.0712C69.3289 36.8338 69.368 32.5853 69.368 32.4055C69.3682 32.005 68.8733 31.6803 68.2627 31.6803ZM16.7939 35.7414L18.57 34.5764L49.4234 39.6353L38.9695 46.4926L16.7939 35.7414ZM64.3581 38.043C64.357 38.0439 64.3556 38.0445 64.3543 38.0454L32.0416 59.2413C32.0381 59.2437 32.0351 59.2464 32.0314 59.2488C32.0162 59.259 32.0021 59.2696 31.9878 59.2804C31.9772 59.2884 31.9666 59.2962 31.9566 59.3044C31.9456 59.3135 31.9356 59.323 31.9253 59.3324C31.9137 59.3429 31.9023 59.3533 31.8917 59.3641C31.8844 59.3715 31.878 59.3793 31.8711 59.3869C31.8594 59.3999 31.848 59.4129 31.8376 59.4262C31.8326 59.4327 31.8283 59.4396 31.8233 59.4463C31.813 59.4608 31.8028 59.4752 31.794 59.4899C31.7895 59.4974 31.786 59.5051 31.7818 59.5127C31.7744 59.5268 31.7665 59.5408 31.7604 59.5551C31.7561 59.5652 31.7528 59.5755 31.7489 59.5857C31.7447 59.5977 31.7398 59.6096 31.7364 59.6217C31.7328 59.6346 31.7305 59.6477 31.7279 59.6609C31.7259 59.6706 31.7236 59.6801 31.7222 59.6898C31.7204 59.7042 31.7198 59.7187 31.7191 59.7332C31.7188 59.742 31.7179 59.7507 31.7179 59.7595C31.7181 59.7733 31.7196 59.7871 31.7209 59.801C31.7219 59.8109 31.7225 59.8209 31.7242 59.8308C31.7261 59.8426 31.7291 59.8545 31.7319 59.8663C31.7348 59.8786 31.7377 59.8908 31.7417 59.903C31.7447 59.9127 31.7485 59.9222 31.7522 59.9318C31.7577 59.9461 31.7635 59.9604 31.7704 59.9745C31.7718 59.9775 31.7727 59.9806 31.7742 59.9837L33.6985 63.7694L31.7814 65.8656L26.9194 60.5504L31.5207 57.5322C31.9529 57.2487 31.9529 56.7896 31.5211 56.5063C31.0892 56.2231 30.3893 56.2231 29.9576 56.5063L25.3564 59.5245L17.2536 56.3352L20.4491 55.0776L26.2204 56.3399C26.2239 56.3408 26.2277 56.3409 26.2314 56.3417C26.2805 56.3521 26.3306 56.3602 26.381 56.3659C26.3935 56.3673 26.4056 56.3682 26.4179 56.3694C26.4635 56.3735 26.5092 56.3762 26.5551 56.3766C26.5601 56.3767 26.5651 56.3774 26.5702 56.3774C26.5758 56.3774 26.5814 56.3766 26.587 56.3766C26.6307 56.3761 26.6743 56.3737 26.7179 56.3698C26.7316 56.3686 26.7452 56.3675 26.7588 56.366C26.8058 56.3607 26.8524 56.3535 26.8982 56.3442C26.9075 56.3422 26.9165 56.3399 26.9258 56.3378C26.9676 56.3285 27.0084 56.3175 27.0486 56.3049C27.056 56.3025 27.0639 56.3005 27.0713 56.2979C27.1146 56.2835 27.1565 56.2669 27.1971 56.2484C27.2077 56.2437 27.218 56.2384 27.2284 56.2333C27.2601 56.2179 27.2906 56.2013 27.3201 56.1833C27.3291 56.1777 27.3389 56.1727 27.3476 56.167C27.3489 56.1661 27.3503 56.1655 27.3516 56.1646L59.6642 34.9688C61.6628 33.6577 65.2464 33.2816 67.0926 33.1738C66.9305 34.383 66.3606 36.727 64.3581 38.043Z" fill="white"/>
<path d="M67.2782 65.1729C67.277 65.1611 67.2753 65.1493 67.2733 65.1375C67.2713 65.1265 67.2689 65.1156 67.266 65.1047C67.2626 65.0909 67.2584 65.0773 67.2537 65.0637C67.2519 65.0584 67.251 65.0532 67.249 65.0478L60.1621 46.4503C60.014 46.0617 59.4134 45.8256 58.8215 45.9227C58.2291 46.0198 57.8689 46.4135 58.017 46.8021L64.952 65.0012L63.1761 66.1662L48.8783 53.4767C48.5154 53.1546 47.8231 53.0866 47.3322 53.3246C46.8411 53.5626 46.7373 54.0167 47.1002 54.3388L62.1614 67.7055C62.1651 67.7088 62.1696 67.7118 62.1736 67.7151C62.1908 67.7298 62.2091 67.7439 62.2282 67.7579C62.2384 67.7653 62.2481 67.7728 62.2585 67.7799C62.2621 67.7823 62.2651 67.7849 62.2687 67.7872C62.2846 67.7976 62.3014 67.8068 62.3181 67.8165C62.3287 67.8227 62.3389 67.8294 62.3499 67.8353C62.3807 67.8519 62.4126 67.8673 62.4453 67.8813C62.4543 67.8852 62.4639 67.8885 62.4731 67.8921C62.4984 67.9023 62.5241 67.9122 62.5505 67.921C62.5625 67.9249 62.5747 67.9284 62.5868 67.9321C62.6114 67.9396 62.6363 67.9466 62.6614 67.9528C62.6743 67.956 62.6872 67.9588 62.7002 67.9617C62.7256 67.9672 62.7513 67.9721 62.777 67.9764C62.7901 67.9786 62.8029 67.9808 62.8161 67.9827C62.8434 67.9865 62.8709 67.9895 62.8985 67.9921C62.9102 67.9932 62.9218 67.9946 62.9335 67.9953C62.9717 67.9981 63.01 67.9996 63.0483 67.9997C63.0495 67.9997 63.0505 67.9998 63.0516 67.9998C63.0529 67.9998 63.0542 67.9996 63.0553 67.9996C63.1045 67.9995 63.1535 67.9965 63.2022 67.9921C63.214 67.991 63.2254 67.9901 63.2371 67.9888C63.2856 67.9834 63.3337 67.976 63.381 67.9663C63.3902 67.9644 63.3993 67.9621 63.4083 67.96C63.4546 67.9496 63.5002 67.9374 63.5445 67.923C63.5487 67.9216 63.5527 67.9205 63.557 67.9192C63.6044 67.9032 63.6501 67.8842 63.6944 67.8633C63.6987 67.8612 63.7035 67.8599 63.7079 67.8578C63.7142 67.8547 63.7197 67.8513 63.7259 67.8482C63.7415 67.8403 63.7568 67.8319 63.7718 67.8234C63.7865 67.8152 63.8008 67.8067 63.8146 67.798C63.8205 67.7943 63.8268 67.7912 63.8325 67.7874L66.9587 65.7367C66.9649 65.7326 66.9703 65.7281 66.9764 65.724C66.9903 65.7144 67.0036 65.7048 67.0166 65.6947C67.0282 65.6854 67.0396 65.6763 67.0506 65.6669C67.0608 65.6583 67.0705 65.6495 67.0799 65.6406C67.0921 65.6295 67.1034 65.6183 67.1144 65.6069C67.1218 65.5989 67.129 65.5909 67.136 65.5829C67.147 65.5703 67.1574 65.5578 67.167 65.5449C67.173 65.5368 67.1787 65.5287 67.1843 65.5204C67.193 65.5076 67.2017 65.4947 67.2091 65.4815C67.2146 65.4722 67.2193 65.4628 67.2241 65.4534C67.2304 65.4412 67.2364 65.429 67.2416 65.4167C67.2463 65.4055 67.2501 65.3943 67.2541 65.383C67.2579 65.372 67.2616 65.3612 67.2644 65.3501C67.2679 65.3373 67.2704 65.3247 67.2729 65.3118C67.2747 65.3017 67.2764 65.2916 67.2777 65.2815C67.2793 65.2682 67.2802 65.2549 67.2806 65.2416C67.281 65.2312 67.2813 65.2209 67.281 65.2105C67.2806 65.198 67.2796 65.1855 67.2782 65.1729Z" fill="white"/>
</svg>
