<svg width="85" height="85" viewBox="0 0 85 85" fill="none" xmlns="http://www.w3.org/2000/svg">
<circle cx="42.5" cy="42.5" r="42" stroke="white"/>
<path d="M49.2672 48.8137C49.2672 53.8729 54.0429 57.9743 59.9339 57.9743C65.8245 57.9743 70.6001 53.8729 70.6001 48.8137C70.6001 43.7548 65.8245 39.6534 59.9339 39.6534C54.0454 39.659 49.2737 43.757 49.2672 48.8137V48.8137ZM59.9339 41.4853C64.6467 41.4853 68.467 44.7663 68.467 48.8137C68.467 52.8611 64.6467 56.142 59.9339 56.142C55.2211 56.142 51.4007 52.8611 51.4007 48.8137C51.4059 44.7685 55.2232 41.4898 59.9339 41.4853Z" fill="white"/>
<path d="M53.8389 67.1349H66.0297V68.9668H53.8389V67.1349Z" fill="white"/>
<path d="M49.2672 63.4703H70.6005V65.3027H49.2672V63.4703Z" fill="white"/>
<path d="M25.8008 63.4703H27.9342V65.3027H25.8008V63.4703Z" fill="white"/>
<path d="M19.4012 65.3027H21.5344V67.1349H19.4012V65.3027Z" fill="white"/>
<path d="M25.9075 58.3158C31.4771 49.9852 34.9716 40.7518 36.1696 31.2009L46.0897 39.6697C46.288 39.8393 46.5561 39.935 46.8363 39.9361C46.8939 39.9365 46.952 39.9324 47.0088 39.9243C47.347 39.877 47.6379 39.693 47.7907 39.4298C49.8016 35.983 49.0141 31.8173 45.8366 29.094L44.9644 28.3445H52.4669C53.056 28.3449 53.5341 27.9351 53.5341 27.4291C53.5345 27.3301 53.5156 27.2318 53.4795 27.1383C52.0629 23.4796 48.0764 21.0125 43.587 21.0162H42.2005L47.5273 16.4148C47.943 16.0563 47.9413 15.4765 47.5239 15.1195C47.443 15.0504 47.3501 14.9927 47.2481 14.9491C43.2328 13.2203 38.3797 13.8962 35.2066 16.6265L34.188 17.5013C33.8558 17.7884 33.5473 18.0944 33.2633 18.4174C32.9827 18.0944 32.6763 17.7884 32.3467 17.5013L31.3282 16.6265C28.1576 13.8981 23.3071 13.2221 19.2944 14.9491C18.7673 15.1753 18.5534 15.7255 18.8168 16.1779C18.8675 16.2655 18.9347 16.3453 19.0151 16.4148L24.348 21.0162H22.9478C18.4583 21.0125 14.4715 23.4796 13.0553 27.1383C12.8685 27.618 13.1702 28.1368 13.7292 28.2972C13.838 28.3286 13.9525 28.3445 14.0678 28.3445H21.563L20.6908 29.094C17.5134 31.8173 16.7259 35.983 18.7363 39.4298C18.8895 39.693 19.1804 39.877 19.5182 39.9243C19.5754 39.9324 19.6331 39.9365 19.6912 39.9361C19.973 39.9361 20.2433 39.8404 20.4429 39.6697L29.6805 31.7833C28.5367 40.5614 24.6871 48.9187 18.5285 55.9928C17.0947 55.6694 15.6411 55.4148 14.1745 55.2307L13.508 55.1731L13.2945 56.9969L13.9164 57.049C14.9831 57.1802 16.043 57.3653 17.0972 57.5748C16.8838 57.8047 16.6704 58.0383 16.4496 58.2648L18.0857 59.44C26.2827 51.0702 31.1694 40.6793 32.0399 29.7681L33.2676 28.7204L34.1867 29.5053C33.0653 41.1742 28.4016 52.387 20.6607 62.0251L22.4077 63.075C23.2464 62.0469 24.0464 60.98 24.8218 59.8927C29.8113 61.9423 34.2169 64.9065 37.7282 68.5766L39.3781 67.4159C37.3018 65.248 34.923 63.3075 32.2946 61.6385H77V59.8062H29.1344C28.0888 59.2641 27.0095 58.773 25.9075 58.3158V58.3158ZM46.4447 37.3877L35.1747 27.7647C38.0574 27.0256 41.1798 27.6963 43.3176 29.5142L44.3361 30.3893C46.4701 32.2186 47.2773 34.899 46.4447 37.3877ZM50.8395 26.5126H42.0077C39.9508 25.6719 37.6301 25.4339 35.4007 25.8356C36.9528 23.9612 39.465 22.8481 42.1433 22.8484H43.5831C46.5983 22.8444 49.3777 24.248 50.8395 26.5126ZM35.6928 18.7966L36.7118 17.9218C38.8436 16.0888 41.966 15.3952 44.865 16.1106L38.5419 21.5731C36.4898 22.2217 34.7281 23.4094 33.5064 24.9671C33.0103 22.7261 33.8287 20.4186 35.6963 18.7966H35.6928ZM29.8169 17.9218L30.8355 18.7966C31.3105 19.2131 31.7228 19.6795 32.0623 20.1843C31.579 21.1492 31.3032 22.1806 31.2473 23.2295C30.2898 22.511 29.1869 21.95 27.9941 21.5731L21.6698 16.1106C24.5679 15.3955 27.6894 16.0892 29.8199 17.9218H29.8169ZM22.9443 22.8484H24.3846C27.0646 22.8462 29.5802 23.959 31.1341 25.8345C28.9059 25.4342 26.5861 25.6722 24.5305 26.5126H15.6953C17.1566 24.2491 19.9339 22.8458 22.9478 22.8484H22.9443ZM20.0901 37.3877C19.2574 34.899 20.0651 32.2186 22.199 30.3893L23.2176 29.5142C24.7521 28.1997 26.8331 27.4639 29.001 27.4698C29.801 27.4701 30.5966 27.5681 31.3647 27.761L20.0901 37.3877Z" fill="white"/>
</svg>
