<svg width="85" height="85" viewBox="0 0 85 85" fill="none" xmlns="http://www.w3.org/2000/svg">
<circle cx="42.5" cy="42.5" r="42" stroke="white"/>
<path d="M70.4545 39.0827H55.0128C55.7122 37.9329 56.0094 36.6355 55.9337 35.3562C57.8348 35.4311 59.5779 34.4292 59.5779 32.9959C59.5779 32.5011 59.3636 32.0416 58.9986 31.6617C59.5948 31.3786 59.9892 30.8943 59.9892 30.3448V29.2151C59.9892 28.344 58.9991 27.6353 57.7822 27.6353H55.9336V23.645C55.9337 21.0837 53.0228 19 49.4446 19H40.3113C36.7332 19 33.8223 21.0837 33.8223 23.645V27.6352H31.9737C30.7567 27.6352 29.7667 28.344 29.7667 29.215V30.3448C29.7667 30.8942 30.1611 31.3785 30.7573 31.6617C30.3923 32.0415 30.178 32.501 30.178 32.9958C30.178 34.372 31.881 35.4918 33.8221 35.3561C33.6529 36.5659 34.1009 38.0169 34.7475 39.0826H19.3015C17.481 39.0826 16 40.1427 16 41.4459V47.7726C16 49.0757 17.481 50.1359 19.3015 50.1359H22.8543C22.7722 50.3694 22.71 50.6066 22.6688 50.8463C22.2378 50.8365 21.8067 50.9189 21.431 51.0919C20.826 51.3706 20.4648 51.8408 20.4648 52.3496V54.3217H19.2709C18.4587 54.3217 17.7433 54.7344 17.5696 55.3029C17.2719 56.2776 17.135 57.2761 17.1629 58.271C17.1859 59.0955 17.3228 59.9228 17.5695 60.7297C17.7433 61.2983 18.4588 61.7109 19.2708 61.7109H20.4648V62.3554C20.4648 62.7113 20.868 62.9999 21.3653 62.9999C21.8625 62.9999 22.2657 62.7113 22.2657 62.3554V61.7109H22.7772C24.4304 61.7109 25.7753 60.7481 25.7753 59.5647V56.4678C25.7753 55.2845 24.4304 54.3217 22.7772 54.3217H22.2658V52.3497C22.2778 52.1797 22.4952 52.0817 22.755 52.1587L32.2219 55.2413V62.3554C32.2219 62.7113 32.6251 62.9999 33.1223 62.9999C33.6196 62.9999 34.0228 62.7113 34.0228 62.3554V55.241L43.9777 51.9992V62.3554C43.9777 62.7113 44.3808 62.9999 44.8781 62.9999C45.3754 62.9999 45.7785 62.7113 45.7785 62.3554V51.9992C45.9998 52.0775 55.4962 55.1587 55.734 55.2411V62.3554C55.734 62.7113 56.1371 62.9999 56.6344 62.9999C57.1316 62.9999 57.5348 62.7113 57.5348 62.3554V55.2411L67.0016 52.1586C67.2662 52.0823 67.4782 52.1796 67.4904 52.3497V54.3218H66.979C65.3259 54.3218 63.9809 55.2845 63.9809 56.4679V59.5648C63.9809 60.7482 65.3259 61.7109 66.979 61.7109H67.4906V62.3555C67.4906 62.7114 67.8937 63 68.391 63C68.8882 63 69.2914 62.7114 69.2914 62.3555V61.7109H70.4855C71.2974 61.7109 72.0129 61.2983 72.1867 60.7298C72.4335 59.9228 72.5702 59.0955 72.5934 58.271C72.6212 57.2762 72.4845 56.2776 72.1866 55.3029C72.0129 54.7345 71.2975 54.3218 70.4853 54.3218H69.2914V52.3497C69.2914 51.8409 68.9301 51.3707 68.3252 51.092C67.9495 50.919 67.5184 50.8365 67.0874 50.8463C67.0462 50.6066 66.9841 50.3694 66.9019 50.136H70.4547C72.2752 50.136 73.7562 49.0758 73.7562 47.7727V41.446C73.756 40.1428 72.275 39.0827 70.4545 39.0827V39.0827ZM20.956 48.8469H19.3015C18.474 48.8469 17.8008 48.365 17.8008 47.7727V41.446C17.8008 40.8536 18.474 40.3718 19.3015 40.3718H20.956V48.8469ZM22.7771 55.6109C23.4373 55.6109 23.9744 55.9953 23.9744 56.4679V59.5648C23.9744 60.0374 23.4373 60.4219 22.7771 60.4219H19.3188C19.1033 59.7071 18.9837 58.975 18.9633 58.2452C18.9385 57.3625 19.0582 56.4764 19.3189 55.6109H22.7771V55.6109ZM70.4371 55.6109C70.6978 56.4763 70.8174 57.3625 70.7927 58.2452C70.7723 58.9749 70.6526 59.7071 70.4372 60.4218H66.9789C66.3187 60.4218 65.7816 60.0373 65.7816 59.5647V56.4678C65.7816 55.9952 66.3187 55.6108 66.9789 55.6108H70.4371V55.6109ZM63.3977 40.3718V46.658C62.6004 46.2944 61.7158 46.0291 60.7841 45.8825L51.939 44.4911C51.2563 44.384 50.7608 43.943 50.7608 43.4423V42.6164C51.4532 42.3036 52.1034 41.9353 52.6964 41.5108C53.1902 41.1573 53.6295 40.7755 54.0155 40.3718H63.3977V40.3718ZM55.9338 34.0671V31.9246C56.8587 31.8236 57.7772 32.3019 57.7772 32.9958C57.7772 33.6772 56.8675 34.1728 55.9338 34.0671ZM35.6231 23.645C35.6231 21.7945 37.7262 20.2891 40.3113 20.2891H49.4446C52.0298 20.2891 54.1329 21.7945 54.1329 23.645V27.6352H35.6231V23.645ZM33.8221 34.0671C32.8761 34.1491 31.9788 33.7066 31.9788 32.9959C31.9788 32.3049 32.9017 31.8258 33.8221 31.9247V34.0671ZM31.9737 30.6356C31.7496 30.6356 31.5675 30.5051 31.5675 30.3448V29.2151C31.5675 29.0548 31.7498 28.9244 31.9737 28.9244H57.7823C58.0064 28.9244 58.1885 29.0548 58.1885 29.2151V30.3448C58.1885 30.5052 58.0062 30.6356 57.7823 30.6356H42.6795C42.1823 30.6356 41.7791 30.9241 41.7791 31.2801C41.7791 31.6361 42.1823 31.9246 42.6795 31.9246H54.133V35.915C54.1343 37.692 53.1585 39.3569 51.423 40.5992C50.8234 41.0285 50.1546 41.3899 49.4366 41.6817C48.0431 42.2481 46.531 42.54 44.878 42.54C39.7748 42.54 35.623 39.568 35.623 35.915V31.9246H38.4776C38.9749 31.9246 39.378 31.6361 39.378 31.2801C39.378 30.9241 38.9749 30.6356 38.4776 30.6356H31.9737ZM49.4971 44.7252L44.878 48.0316L40.2589 44.7252C40.6434 44.3037 40.8284 43.7877 40.7961 43.2698C42.0596 43.6304 43.437 43.829 44.878 43.829C46.2988 43.829 47.6778 43.6366 48.9599 43.2723C48.8983 43.7726 49.129 44.3205 49.4971 44.7252ZM26.3583 40.3718H35.7467C36.6032 41.2681 37.7104 42.0323 38.9952 42.6127V43.4423C38.9952 43.943 38.4997 44.384 37.8162 44.4912L28.9718 45.8825C28.0401 46.0291 27.1556 46.2944 26.3582 46.658V40.3718H26.3583ZM23.5434 48.8469H22.7568V40.3718H24.5576V47.7757C24.1624 48.1048 23.824 48.4648 23.5434 48.8469ZM33.1217 54.1182L24.421 51.285C24.5866 49.2931 26.611 47.5738 29.3586 47.1415L34.7995 46.2855L41.7957 51.2935L33.1217 54.1182ZM56.6342 54.1182L47.9604 51.2936L49.6616 50.0759C50.0132 49.8242 50.0132 49.4161 49.6616 49.1644C49.3099 48.9127 48.7398 48.9127 48.3883 49.1644L46.208 50.7251C45.3569 50.4693 44.399 50.4693 43.5479 50.7251L36.8871 45.9573L38.2022 45.7504C38.4479 45.7119 38.681 45.652 38.9017 45.5769L44.0712 49.2774C44.2866 49.4316 44.5732 49.5166 44.8779 49.5166C45.1826 49.5166 45.4691 49.4316 45.6843 49.2774L50.854 45.5769C51.0745 45.652 51.3074 45.7118 51.5529 45.7503L52.8686 45.9573L51.3878 47.0173C51.0362 47.269 51.0362 47.6771 51.3878 47.9287C51.7395 48.1805 52.3096 48.1805 52.6611 47.9287L54.9565 46.2857L60.3972 47.1416C63.1448 47.5739 65.1693 49.2932 65.3349 51.2851L56.6342 54.1182ZM66.9992 48.8469H66.2126C65.9325 48.4652 65.5931 48.1046 65.1985 47.7757V40.3718H66.9993V48.8469H66.9992ZM71.9552 47.7727C71.9552 48.365 71.282 48.8469 70.4545 48.8469H68.8V40.3718H70.4545C71.282 40.3718 71.9552 40.8536 71.9552 41.446V47.7727ZM49.7777 35.4406C50.2749 35.4406 50.6781 35.152 50.6781 34.7961V33.3931C50.6781 33.0372 50.2749 32.7486 49.7777 32.7486C49.2804 32.7486 48.8773 33.0372 48.8773 33.3931V34.7961C48.8773 35.152 49.2804 35.4406 49.7777 35.4406ZM39.0779 33.3931V34.7961C39.0779 35.152 39.481 35.4406 39.9783 35.4406C40.4756 35.4406 40.8787 35.152 40.8787 34.7961V33.3931C40.8787 33.0372 40.4756 32.7486 39.9783 32.7486C39.481 32.7486 39.0779 33.0372 39.0779 33.3931ZM42.4851 39.4708C42.9845 39.6669 43.7959 39.9023 44.8259 39.9099C45.8644 39.9177 46.7579 39.6721 47.2708 39.4708C47.7068 39.2996 47.8664 38.9078 47.6272 38.5957C47.3881 38.2837 46.8408 38.1694 46.4047 38.3405C46.0718 38.4713 45.5299 38.6263 44.8447 38.621C44.1878 38.616 43.6699 38.4658 43.3511 38.3405C42.915 38.1693 42.3678 38.2836 42.1286 38.5957C41.8895 38.9078 42.0491 39.2996 42.4851 39.4708V39.4708Z" fill="white"/>
</svg>
